<svg id="Layer_1" data-name="Layer 1" xmlns="http://www.w3.org/2000/svg" xmlns:xlink="http://www.w3.org/1999/xlink" viewBox="0 0 100 100"><defs><style>.cls-1{fill:url(#linear-gradient);}.cls-2{fill:#ed3a3a;}.cls-3{fill:url(#linear-gradient-2);}.cls-4{fill:url(#linear-gradient-3);}</style><linearGradient id="linear-gradient" x1="4.93" y1="57.15" x2="73.07" y2="57.15" gradientUnits="userSpaceOnUse"><stop offset="0" stop-color="#e9c881"/><stop offset="0" stop-color="#a77d20"/><stop offset="0.26" stop-color="#e1b753"/><stop offset="0.55" stop-color="#ffffd7"/><stop offset="0.86" stop-color="#f1c669"/><stop offset="1" stop-color="#996800"/><stop offset="1" stop-color="#946a0e"/></linearGradient><linearGradient id="linear-gradient-2" x1="8.02" y1="52.24" x2="95.07" y2="52.24" gradientUnits="userSpaceOnUse"><stop offset="0" stop-color="#e9c881"/><stop offset="0" stop-color="#a77d20"/><stop offset="0.15" stop-color="#e1b753"/><stop offset="0.52" stop-color="#ffffd7"/><stop offset="0.76" stop-color="#f1c669"/><stop offset="0.88" stop-color="#996800"/><stop offset="1" stop-color="#946a0e"/></linearGradient><linearGradient id="linear-gradient-3" x1="25.48" y1="42.28" x2="94.33" y2="42.28" gradientUnits="userSpaceOnUse"><stop offset="0" stop-color="#e9c881"/><stop offset="0" stop-color="#a77d20"/><stop offset="0.13" stop-color="#e1b753"/><stop offset="0.36" stop-color="#ffffd7"/><stop offset="0.59" stop-color="#f1c669"/><stop offset="0.77" stop-color="#996800"/><stop offset="1" stop-color="#946a0e"/></linearGradient></defs><rect width="100" height="100"/><path class="cls-1" d="M70.76,85A40.89,40.89,0,0,1,19.93,21.9q-.45-.49-1-1a8.54,8.54,0,0,0-2.1-1.34,44.7,44.7,0,0,0,56.2,68.46l0,0A28.41,28.41,0,0,1,70.76,85Z"/><path class="cls-2" d="M29.84,65.67h0Z"/><path class="cls-3" d="M76,64c-1.65-13.6-6.07-40.7-6.68-45.23a.21.21,0,0,0-.4-.07L50,58.08a.21.21,0,0,1-.38,0C48.15,54.64,38,31.46,35,26.54c-3.18-5.31-8.42-11.36-13-12.67a24.37,24.37,0,0,0-13.86.2.21.21,0,0,0,0,.41c2.54.36,9.44,1.55,12.61,4.46,3.92,3.6,5.31,8.09,4.33,15.78-.46,3.65-.75,7.32-1.06,11-.36,4.2-.69,8.4-1.1,12.6-.15,1.6-.34,3.2-.6,4.79a11.72,11.72,0,0,1-.89,3.7c-.92,1.71-3.16,1.66-4.85,1.7h-.08v1H30v-.89s-2.7-.09-2.86-2.63C27,64.4,29.26,40.28,29.26,40.28s13.83,29,14.4,30.43c1.06,2.47,2.17,5,4.46,7.1a.21.21,0,0,0,.33-.2c-.19-1,0-2.28,1.19-5.47C51.28,67.89,63,41.92,63,41.92S64.06,63.5,69,75.6s10.3,15.13,15.61,15.78a34.66,34.66,0,0,0,10.32-.74.21.21,0,0,0,0-.41C90.39,89.87,78.88,86.69,76,64Z"/><path class="cls-4" d="M28.84,14.77A40.9,40.9,0,0,1,81.59,75.54a28.69,28.69,0,0,0,1.82,3.72A44.7,44.7,0,0,0,25.48,12.38l.21.15A20.71,20.71,0,0,1,28.84,14.77Z"/></svg>